<?xml version="1.0" encoding="UTF-8" standalone="no"?>
<!-- Created with Inkscape (http://www.inkscape.org/) -->

<svg
   xmlns:dc="http://purl.org/dc/elements/1.1/"
   xmlns:cc="http://creativecommons.org/ns#"
   xmlns:rdf="http://www.w3.org/1999/02/22-rdf-syntax-ns#"
   xmlns:svg="http://www.w3.org/2000/svg"
   xmlns="http://www.w3.org/2000/svg"
   xmlns:sodipodi="http://sodipodi.sourceforge.net/DTD/sodipodi-0.dtd"
   xmlns:inkscape="http://www.inkscape.org/namespaces/inkscape"
   width="34.261555mm"
   height="21.579416mm"
   viewBox="0 0 34.261555 21.579416"
   version="1.1"
   id="svg8"
   inkscape:version="0.92.3 (unknown)"
   sodipodi:docname="logo.svg">
  <defs
     id="defs2" />
  <sodipodi:namedview
     id="base"
     pagecolor="#ffffff"
     bordercolor="#666666"
     borderopacity="1.0"
     inkscape:pageopacity="0.0"
     inkscape:pageshadow="2"
     inkscape:zoom="0.35"
     inkscape:cx="-157.45317"
     inkscape:cy="-129.48002"
     inkscape:document-units="mm"
     inkscape:current-layer="layer1"
     showgrid="false"
     inkscape:window-width="1853"
     inkscape:window-height="1025"
     inkscape:window-x="67"
     inkscape:window-y="27"
     inkscape:window-maximized="1" />
  <metadata
     id="metadata5">
    <rdf:RDF>
      <cc:Work
         rdf:about="">
        <dc:format>image/svg+xml</dc:format>
        <dc:type
           rdf:resource="http://purl.org/dc/dcmitype/StillImage" />
        <dc:title />
      </cc:Work>
    </rdf:RDF>
  </metadata>
  <g
     inkscape:label="Layer 1"
     inkscape:groupmode="layer"
     id="layer1"
     transform="translate(-28.808295,-92.995662)">
    <path
       style="fill:#fd461e;fill-opacity:1;stroke:none;stroke-width:0.26458332"
       d="m 35.832404,100.11824 c -0.960318,-1.146166 1.188386,-2.237831 1.74625,-0.870474 0.920891,1.181464 2.685908,-0.747131 0.986234,-1.076193 -1.424023,-0.16665 -3.148002,-1.062587 -2.859319,-2.759108 0.141597,-1.755619 2.241584,-2.493864 3.725168,-1.919387 1.27713,0.0787 1.795324,1.855066 0.328083,2.159 -0.657425,-0.399916 -2.33337,-1.13674 -2.135187,0.291042 1.040761,0.886992 3.19193,0.392332 3.505729,2.156354 0.463495,1.602788 -0.890727,3.195256 -2.515361,3.205926 -1.049045,0.0891 -2.149912,-0.32313 -2.781597,-1.18716 z m 9.344917,-1.703912 c 0.597171,0.577334 1.43087,0.98046 1.80975,1.725082 -0.323038,1.84539 -2.048886,0.80364 -2.704703,-0.182561 -1.04955,-1.291355 -0.06936,0.991591 -0.922734,1.182691 -1.300781,0.54876 -1.617104,-0.70816 -1.463146,-1.672366 0.0067,-1.963073 -0.01367,-3.926736 0.01058,-5.889429 0.617226,-1.340185 2.314376,-0.221847 1.8415,1.018274 0,0.902353 0,1.804706 0,2.707059 0.677804,-1.047748 2.641088,-2.258402 2.84361,-0.22225 -0.348265,0.541956 -0.949143,0.892666 -1.41486,1.3335 z m 2.382904,-1.852083 c -0.09537,-1.614631 2.472343,-0.928371 1.852084,0.507059 -0.01201,1.196019 0.02533,2.394093 -0.02117,3.588686 -0.570956,1.27235 -2.31999,0.28012 -1.830917,-0.94787 0,-1.049292 0,-2.098583 0,-3.147875 z m 1.735667,-1.957917 c -1.175078,1.283236 -2.670479,-1.12596 -1.109927,-1.559057 1.113514,-0.321308 1.47106,0.700565 1.109927,1.559057 z m 2.919511,4.73075 c 1.919431,0.734412 -0.392351,2.892732 -1.513416,1.344082 -0.700001,-1.110779 -0.346951,-2.493952 -0.433917,-3.739051 0.0062,-1.127784 -0.0129,-2.256122 0.01058,-3.383531 0.548509,-1.285194 2.323839,-0.289624 1.8415,0.937292 0.01509,1.586051 -0.03069,3.175039 0.02381,4.759187 z m 2.76225,-0.328083 c 0.286026,0.570669 1.771147,0.306707 1.317625,1.506145 -0.49983,1.36595 -2.971785,0.55413 -3.090829,-0.793176 -0.166468,-1.92459 -0.04665,-3.870026 -0.08946,-5.803552 -0.13333,-1.547621 2.437184,-1.005275 1.862666,0.415494 0,1.558363 0,3.116726 0,4.675089 z M 33.814212,112.40549 c 1.111195,-1.19213 2.458885,1.41781 0.79375,1.69334 -2.340405,1.32527 -5.672567,-0.47175 -5.782469,-3.17169 -0.26806,-1.91428 1.112472,-3.76337 2.980531,-4.17844 1.229458,-0.34671 2.701549,-0.0326 3.590396,0.89959 0.299826,1.17367 -1.185571,1.84211 -1.952625,0.92075 -1.386228,-0.47255 -3.029489,0.76127 -2.749021,2.26351 0.09484,1.46579 1.89241,2.27646 3.119438,1.57294 z m 7.412467,-1.41816 c 0.133844,1.15766 -1.061155,1.38379 -1.92797,1.27 -0.539149,0 -1.078298,0 -1.617446,0 0.459111,1.45145 2.214123,0.0347 3.005005,0.68064 0.993176,1.65589 -1.680605,1.80784 -2.729839,1.57096 -2.479927,-0.32475 -3.10078,-4.12271 -0.947208,-5.31283 1.540447,-0.99065 4.234013,-0.37584 4.217458,1.79123 z m -2.233083,0.30691 c 1.41757,-0.83347 -1.662919,-1.2548 -1.252518,0 0.417506,0 0.835012,0 1.252518,0 z m 6.014144,-2.43416 c 1.673949,-0.0395 2.666925,1.76233 2.465917,3.26931 -0.06487,0.70975 0.168219,1.50906 -0.21299,2.13679 -1.185502,0.69193 -1.898091,-0.43835 -1.649677,-1.49944 -0.04818,-0.71535 0.255773,-1.85068 -0.720328,-2.03937 -1.067244,-0.22362 -1.229236,0.94524 -1.131755,1.71536 -0.08516,0.63276 0.250213,1.5203 -0.388938,1.91274 -1.299942,0.55409 -1.617418,-0.70616 -1.463145,-1.66971 0.0062,-1.09525 -0.01299,-2.19107 0.01058,-3.28593 0.322121,-1.20218 1.961162,-0.10698 2.010833,-0.0741 0.291331,-0.27322 0.670715,-0.47542 1.0795,-0.46566 z m 6.442108,1.87325 c -0.685777,-0.2296 -0.785631,0.16389 -0.687917,0.76749 -0.203685,0.91918 0.356172,1.30026 1.196578,1.40275 0.894917,1.80838 -1.777032,1.93106 -2.600523,0.90141 -0.662611,-0.89923 -0.372567,-2.07298 -0.437555,-3.11399 -1.350355,0.51439 -1.321191,-2.27661 0,-1.76741 0.09326,-0.62931 -0.266851,-1.52866 0.388938,-1.90236 1.256171,-0.51049 1.617103,0.7064 1.452562,1.67501 0.164724,0.50006 1.965157,-0.1944 1.61925,1.11635 0.09531,0.60536 -0.332514,1.02616 -0.931333,0.92075 z m 6.685359,0.254 c 0.133843,1.15766 -1.061155,1.38379 -1.92797,1.27 -0.539149,0 -1.078298,0 -1.617447,0 0.459112,1.45145 2.214124,0.0347 3.005005,0.68064 0.993177,1.65589 -1.680605,1.80784 -2.729838,1.57096 -2.479928,-0.32475 -3.10078,-4.12271 -0.947209,-5.31283 1.540447,-0.99065 4.234013,-0.37584 4.217459,1.79123 z m -2.233084,0.30691 c 1.417571,-0.83347 -1.662918,-1.2548 -1.252518,0 0.417506,0 0.835012,0 1.252518,0 z m 6.702062,-2.37066 c 1.156251,0.61933 -0.02617,2.5031 -1.143,1.68275 -1.042967,0.0615 -0.740077,1.20109 -0.783167,1.90265 -0.07883,0.65677 0.299672,1.79569 -0.640291,1.91132 -1.167943,0.34197 -1.333737,-0.81789 -1.222375,-1.65356 0.0059,-1.1152 -0.01251,-2.23092 0.01058,-3.34575 0.239642,-1.14848 1.871351,-0.2351 1.979083,-0.14816 0.48808,-0.46014 1.176905,-0.57702 1.799167,-0.34925 z"
       id="text817"
       inkscape:connector-curvature="0" />
  </g>
</svg>
